<svg xmlns="http://www.w3.org/2000/svg" viewBox="0 0 1160 1160" width="1160" height="1160">
<rect width="1160" height="1160" fill="#000000"/>
<rect x="0" y="0" width="40" height="40" fill="#D4AF37"/>
<rect x="40" y="0" width="40" height="40" fill="#D4AF37"/>
<rect x="80" y="0" width="40" height="40" fill="#D4AF37"/>
<rect x="120" y="0" width="40" height="40" fill="#D4AF37"/>
<rect x="160" y="0" width="40" height="40" fill="#D4AF37"/>
<rect x="200" y="0" width="40" height="40" fill="#D4AF37"/>
<rect x="240" y="0" width="40" height="40" fill="#D4AF37"/>
<rect x="320" y="0" width="40" height="40" fill="#D4AF37"/>
<rect x="440" y="0" width="40" height="40" fill="#D4AF37"/>
<rect x="480" y="0" width="40" height="40" fill="#D4AF37"/>
<rect x="560" y="0" width="40" height="40" fill="#D4AF37"/>
<rect x="600" y="0" width="40" height="40" fill="#D4AF37"/>
<rect x="640" y="0" width="40" height="40" fill="#D4AF37"/>
<rect x="680" y="0" width="40" height="40" fill="#D4AF37"/>
<rect x="760" y="0" width="40" height="40" fill="#D4AF37"/>
<rect x="880" y="0" width="40" height="40" fill="#D4AF37"/>
<rect x="920" y="0" width="40" height="40" fill="#D4AF37"/>
<rect x="960" y="0" width="40" height="40" fill="#D4AF37"/>
<rect x="1000" y="0" width="40" height="40" fill="#D4AF37"/>
<rect x="1040" y="0" width="40" height="40" fill="#D4AF37"/>
<rect x="1080" y="0" width="40" height="40" fill="#D4AF37"/>
<rect x="1120" y="0" width="40" height="40" fill="#D4AF37"/>
<rect x="0" y="40" width="40" height="40" fill="#D4AF37"/>
<rect x="240" y="40" width="40" height="40" fill="#D4AF37"/>
<rect x="320" y="40" width="40" height="40" fill="#D4AF37"/>
<rect x="360" y="40" width="40" height="40" fill="#D4AF37"/>
<rect x="400" y="40" width="40" height="40" fill="#D4AF37"/>
<rect x="480" y="40" width="40" height="40" fill="#D4AF37"/>
<rect x="520" y="40" width="40" height="40" fill="#D4AF37"/>
<rect x="560" y="40" width="40" height="40" fill="#D4AF37"/>
<rect x="640" y="40" width="40" height="40" fill="#D4AF37"/>
<rect x="880" y="40" width="40" height="40" fill="#D4AF37"/>
<rect x="1120" y="40" width="40" height="40" fill="#D4AF37"/>
<rect x="0" y="80" width="40" height="40" fill="#D4AF37"/>
<rect x="80" y="80" width="40" height="40" fill="#D4AF37"/>
<rect x="120" y="80" width="40" height="40" fill="#D4AF37"/>
<rect x="160" y="80" width="40" height="40" fill="#D4AF37"/>
<rect x="240" y="80" width="40" height="40" fill="#D4AF37"/>
<rect x="400" y="80" width="40" height="40" fill="#D4AF37"/>
<rect x="440" y="80" width="40" height="40" fill="#D4AF37"/>
<rect x="480" y="80" width="40" height="40" fill="#D4AF37"/>
<rect x="560" y="80" width="40" height="40" fill="#D4AF37"/>
<rect x="600" y="80" width="40" height="40" fill="#D4AF37"/>
<rect x="680" y="80" width="40" height="40" fill="#D4AF37"/>
<rect x="760" y="80" width="40" height="40" fill="#D4AF37"/>
<rect x="800" y="80" width="40" height="40" fill="#D4AF37"/>
<rect x="880" y="80" width="40" height="40" fill="#D4AF37"/>
<rect x="960" y="80" width="40" height="40" fill="#D4AF37"/>
<rect x="1000" y="80" width="40" height="40" fill="#D4AF37"/>
<rect x="1040" y="80" width="40" height="40" fill="#D4AF37"/>
<rect x="1120" y="80" width="40" height="40" fill="#D4AF37"/>
<rect x="0" y="120" width="40" height="40" fill="#D4AF37"/>
<rect x="80" y="120" width="40" height="40" fill="#D4AF37"/>
<rect x="120" y="120" width="40" height="40" fill="#D4AF37"/>
<rect x="160" y="120" width="40" height="40" fill="#D4AF37"/>
<rect x="240" y="120" width="40" height="40" fill="#D4AF37"/>
<rect x="400" y="120" width="40" height="40" fill="#D4AF37"/>
<rect x="560" y="120" width="40" height="40" fill="#D4AF37"/>
<rect x="600" y="120" width="40" height="40" fill="#D4AF37"/>
<rect x="680" y="120" width="40" height="40" fill="#D4AF37"/>
<rect x="720" y="120" width="40" height="40" fill="#D4AF37"/>
<rect x="800" y="120" width="40" height="40" fill="#D4AF37"/>
<rect x="880" y="120" width="40" height="40" fill="#D4AF37"/>
<rect x="960" y="120" width="40" height="40" fill="#D4AF37"/>
<rect x="1000" y="120" width="40" height="40" fill="#D4AF37"/>
<rect x="1040" y="120" width="40" height="40" fill="#D4AF37"/>
<rect x="1120" y="120" width="40" height="40" fill="#D4AF37"/>
<rect x="0" y="160" width="40" height="40" fill="#D4AF37"/>
<rect x="80" y="160" width="40" height="40" fill="#D4AF37"/>
<rect x="120" y="160" width="40" height="40" fill="#D4AF37"/>
<rect x="160" y="160" width="40" height="40" fill="#D4AF37"/>
<rect x="240" y="160" width="40" height="40" fill="#D4AF37"/>
<rect x="320" y="160" width="40" height="40" fill="#D4AF37"/>
<rect x="360" y="160" width="40" height="40" fill="#D4AF37"/>
<rect x="400" y="160" width="40" height="40" fill="#D4AF37"/>
<rect x="440" y="160" width="40" height="40" fill="#D4AF37"/>
<rect x="520" y="160" width="40" height="40" fill="#D4AF37"/>
<rect x="560" y="160" width="40" height="40" fill="#D4AF37"/>
<rect x="680" y="160" width="40" height="40" fill="#D4AF37"/>
<rect x="720" y="160" width="40" height="40" fill="#D4AF37"/>
<rect x="800" y="160" width="40" height="40" fill="#D4AF37"/>
<rect x="880" y="160" width="40" height="40" fill="#D4AF37"/>
<rect x="960" y="160" width="40" height="40" fill="#D4AF37"/>
<rect x="1000" y="160" width="40" height="40" fill="#D4AF37"/>
<rect x="1040" y="160" width="40" height="40" fill="#D4AF37"/>
<rect x="1120" y="160" width="40" height="40" fill="#D4AF37"/>
<rect x="0" y="200" width="40" height="40" fill="#D4AF37"/>
<rect x="240" y="200" width="40" height="40" fill="#D4AF37"/>
<rect x="320" y="200" width="40" height="40" fill="#D4AF37"/>
<rect x="440" y="200" width="40" height="40" fill="#D4AF37"/>
<rect x="640" y="200" width="40" height="40" fill="#D4AF37"/>
<rect x="720" y="200" width="40" height="40" fill="#D4AF37"/>
<rect x="800" y="200" width="40" height="40" fill="#D4AF37"/>
<rect x="880" y="200" width="40" height="40" fill="#D4AF37"/>
<rect x="1120" y="200" width="40" height="40" fill="#D4AF37"/>
<rect x="0" y="240" width="40" height="40" fill="#D4AF37"/>
<rect x="40" y="240" width="40" height="40" fill="#D4AF37"/>
<rect x="80" y="240" width="40" height="40" fill="#D4AF37"/>
<rect x="120" y="240" width="40" height="40" fill="#D4AF37"/>
<rect x="160" y="240" width="40" height="40" fill="#D4AF37"/>
<rect x="200" y="240" width="40" height="40" fill="#D4AF37"/>
<rect x="240" y="240" width="40" height="40" fill="#D4AF37"/>
<rect x="320" y="240" width="40" height="40" fill="#D4AF37"/>
<rect x="400" y="240" width="40" height="40" fill="#D4AF37"/>
<rect x="480" y="240" width="40" height="40" fill="#D4AF37"/>
<rect x="560" y="240" width="40" height="40" fill="#D4AF37"/>
<rect x="640" y="240" width="40" height="40" fill="#D4AF37"/>
<rect x="720" y="240" width="40" height="40" fill="#D4AF37"/>
<rect x="800" y="240" width="40" height="40" fill="#D4AF37"/>
<rect x="880" y="240" width="40" height="40" fill="#D4AF37"/>
<rect x="920" y="240" width="40" height="40" fill="#D4AF37"/>
<rect x="960" y="240" width="40" height="40" fill="#D4AF37"/>
<rect x="1000" y="240" width="40" height="40" fill="#D4AF37"/>
<rect x="1040" y="240" width="40" height="40" fill="#D4AF37"/>
<rect x="1080" y="240" width="40" height="40" fill="#D4AF37"/>
<rect x="1120" y="240" width="40" height="40" fill="#D4AF37"/>
<rect x="320" y="280" width="40" height="40" fill="#D4AF37"/>
<rect x="400" y="280" width="40" height="40" fill="#D4AF37"/>
<rect x="440" y="280" width="40" height="40" fill="#D4AF37"/>
<rect x="480" y="280" width="40" height="40" fill="#D4AF37"/>
<rect x="560" y="280" width="40" height="40" fill="#D4AF37"/>
<rect x="600" y="280" width="40" height="40" fill="#D4AF37"/>
<rect x="640" y="280" width="40" height="40" fill="#D4AF37"/>
<rect x="720" y="280" width="40" height="40" fill="#D4AF37"/>
<rect x="800" y="280" width="40" height="40" fill="#D4AF37"/>
<rect x="0" y="320" width="40" height="40" fill="#D4AF37"/>
<rect x="40" y="320" width="40" height="40" fill="#D4AF37"/>
<rect x="80" y="320" width="40" height="40" fill="#D4AF37"/>
<rect x="200" y="320" width="40" height="40" fill="#D4AF37"/>
<rect x="240" y="320" width="40" height="40" fill="#D4AF37"/>
<rect x="320" y="320" width="40" height="40" fill="#D4AF37"/>
<rect x="360" y="320" width="40" height="40" fill="#D4AF37"/>
<rect x="400" y="320" width="40" height="40" fill="#D4AF37"/>
<rect x="520" y="320" width="40" height="40" fill="#D4AF37"/>
<rect x="560" y="320" width="40" height="40" fill="#D4AF37"/>
<rect x="640" y="320" width="40" height="40" fill="#D4AF37"/>
<rect x="720" y="320" width="40" height="40" fill="#D4AF37"/>
<rect x="800" y="320" width="40" height="40" fill="#D4AF37"/>
<rect x="840" y="320" width="40" height="40" fill="#D4AF37"/>
<rect x="880" y="320" width="40" height="40" fill="#D4AF37"/>
<rect x="920" y="320" width="40" height="40" fill="#D4AF37"/>
<rect x="960" y="320" width="40" height="40" fill="#D4AF37"/>
<rect x="1080" y="320" width="40" height="40" fill="#D4AF37"/>
<rect x="1120" y="320" width="40" height="40" fill="#D4AF37"/>
<rect x="0" y="360" width="40" height="40" fill="#D4AF37"/>
<rect x="80" y="360" width="40" height="40" fill="#D4AF37"/>
<rect x="120" y="360" width="40" height="40" fill="#D4AF37"/>
<rect x="160" y="360" width="40" height="40" fill="#D4AF37"/>
<rect x="200" y="360" width="40" height="40" fill="#D4AF37"/>
<rect x="360" y="360" width="40" height="40" fill="#D4AF37"/>
<rect x="400" y="360" width="40" height="40" fill="#D4AF37"/>
<rect x="520" y="360" width="40" height="40" fill="#D4AF37"/>
<rect x="560" y="360" width="40" height="40" fill="#D4AF37"/>
<rect x="600" y="360" width="40" height="40" fill="#D4AF37"/>
<rect x="640" y="360" width="40" height="40" fill="#D4AF37"/>
<rect x="720" y="360" width="40" height="40" fill="#D4AF37"/>
<rect x="760" y="360" width="40" height="40" fill="#D4AF37"/>
<rect x="800" y="360" width="40" height="40" fill="#D4AF37"/>
<rect x="880" y="360" width="40" height="40" fill="#D4AF37"/>
<rect x="920" y="360" width="40" height="40" fill="#D4AF37"/>
<rect x="1000" y="360" width="40" height="40" fill="#D4AF37"/>
<rect x="1080" y="360" width="40" height="40" fill="#D4AF37"/>
<rect x="1120" y="360" width="40" height="40" fill="#D4AF37"/>
<rect x="80" y="400" width="40" height="40" fill="#D4AF37"/>
<rect x="120" y="400" width="40" height="40" fill="#D4AF37"/>
<rect x="160" y="400" width="40" height="40" fill="#D4AF37"/>
<rect x="200" y="400" width="40" height="40" fill="#D4AF37"/>
<rect x="240" y="400" width="40" height="40" fill="#D4AF37"/>
<rect x="440" y="400" width="40" height="40" fill="#D4AF37"/>
<rect x="600" y="400" width="40" height="40" fill="#D4AF37"/>
<rect x="680" y="400" width="40" height="40" fill="#D4AF37"/>
<rect x="760" y="400" width="40" height="40" fill="#D4AF37"/>
<rect x="840" y="400" width="40" height="40" fill="#D4AF37"/>
<rect x="1000" y="400" width="40" height="40" fill="#D4AF37"/>
<rect x="1040" y="400" width="40" height="40" fill="#D4AF37"/>
<rect x="1120" y="400" width="40" height="40" fill="#D4AF37"/>
<rect x="40" y="440" width="40" height="40" fill="#D4AF37"/>
<rect x="80" y="440" width="40" height="40" fill="#D4AF37"/>
<rect x="120" y="440" width="40" height="40" fill="#D4AF37"/>
<rect x="360" y="440" width="40" height="40" fill="#D4AF37"/>
<rect x="520" y="440" width="40" height="40" fill="#D4AF37"/>
<rect x="760" y="440" width="40" height="40" fill="#D4AF37"/>
<rect x="840" y="440" width="40" height="40" fill="#D4AF37"/>
<rect x="880" y="440" width="40" height="40" fill="#D4AF37"/>
<rect x="1000" y="440" width="40" height="40" fill="#D4AF37"/>
<rect x="1080" y="440" width="40" height="40" fill="#D4AF37"/>
<rect x="1120" y="440" width="40" height="40" fill="#D4AF37"/>
<rect x="80" y="480" width="40" height="40" fill="#D4AF37"/>
<rect x="160" y="480" width="40" height="40" fill="#D4AF37"/>
<rect x="240" y="480" width="40" height="40" fill="#D4AF37"/>
<rect x="320" y="480" width="40" height="40" fill="#D4AF37"/>
<rect x="360" y="480" width="40" height="40" fill="#D4AF37"/>
<rect x="440" y="480" width="40" height="40" fill="#D4AF37"/>
<rect x="480" y="480" width="40" height="40" fill="#D4AF37"/>
<rect x="520" y="480" width="40" height="40" fill="#D4AF37"/>
<rect x="600" y="480" width="40" height="40" fill="#D4AF37"/>
<rect x="640" y="480" width="40" height="40" fill="#D4AF37"/>
<rect x="680" y="480" width="40" height="40" fill="#D4AF37"/>
<rect x="760" y="480" width="40" height="40" fill="#D4AF37"/>
<rect x="840" y="480" width="40" height="40" fill="#D4AF37"/>
<rect x="880" y="480" width="40" height="40" fill="#D4AF37"/>
<rect x="920" y="480" width="40" height="40" fill="#D4AF37"/>
<rect x="1000" y="480" width="40" height="40" fill="#D4AF37"/>
<rect x="40" y="520" width="40" height="40" fill="#D4AF37"/>
<rect x="120" y="520" width="40" height="40" fill="#D4AF37"/>
<rect x="280" y="520" width="40" height="40" fill="#D4AF37"/>
<rect x="480" y="520" width="40" height="40" fill="#D4AF37"/>
<rect x="600" y="520" width="40" height="40" fill="#D4AF37"/>
<rect x="640" y="520" width="40" height="40" fill="#D4AF37"/>
<rect x="680" y="520" width="40" height="40" fill="#D4AF37"/>
<rect x="800" y="520" width="40" height="40" fill="#D4AF37"/>
<rect x="840" y="520" width="40" height="40" fill="#D4AF37"/>
<rect x="880" y="520" width="40" height="40" fill="#D4AF37"/>
<rect x="920" y="520" width="40" height="40" fill="#D4AF37"/>
<rect x="1040" y="520" width="40" height="40" fill="#D4AF37"/>
<rect x="1120" y="520" width="40" height="40" fill="#D4AF37"/>
<rect x="0" y="560" width="40" height="40" fill="#D4AF37"/>
<rect x="80" y="560" width="40" height="40" fill="#D4AF37"/>
<rect x="200" y="560" width="40" height="40" fill="#D4AF37"/>
<rect x="240" y="560" width="40" height="40" fill="#D4AF37"/>
<rect x="360" y="560" width="40" height="40" fill="#D4AF37"/>
<rect x="400" y="560" width="40" height="40" fill="#D4AF37"/>
<rect x="480" y="560" width="40" height="40" fill="#D4AF37"/>
<rect x="520" y="560" width="40" height="40" fill="#D4AF37"/>
<rect x="560" y="560" width="40" height="40" fill="#D4AF37"/>
<rect x="600" y="560" width="40" height="40" fill="#D4AF37"/>
<rect x="680" y="560" width="40" height="40" fill="#D4AF37"/>
<rect x="720" y="560" width="40" height="40" fill="#D4AF37"/>
<rect x="760" y="560" width="40" height="40" fill="#D4AF37"/>
<rect x="840" y="560" width="40" height="40" fill="#D4AF37"/>
<rect x="960" y="560" width="40" height="40" fill="#D4AF37"/>
<rect x="1040" y="560" width="40" height="40" fill="#D4AF37"/>
<rect x="1120" y="560" width="40" height="40" fill="#D4AF37"/>
<rect x="0" y="600" width="40" height="40" fill="#D4AF37"/>
<rect x="160" y="600" width="40" height="40" fill="#D4AF37"/>
<rect x="200" y="600" width="40" height="40" fill="#D4AF37"/>
<rect x="280" y="600" width="40" height="40" fill="#D4AF37"/>
<rect x="320" y="600" width="40" height="40" fill="#D4AF37"/>
<rect x="400" y="600" width="40" height="40" fill="#D4AF37"/>
<rect x="440" y="600" width="40" height="40" fill="#D4AF37"/>
<rect x="480" y="600" width="40" height="40" fill="#D4AF37"/>
<rect x="560" y="600" width="40" height="40" fill="#D4AF37"/>
<rect x="600" y="600" width="40" height="40" fill="#D4AF37"/>
<rect x="720" y="600" width="40" height="40" fill="#D4AF37"/>
<rect x="760" y="600" width="40" height="40" fill="#D4AF37"/>
<rect x="880" y="600" width="40" height="40" fill="#D4AF37"/>
<rect x="1000" y="600" width="40" height="40" fill="#D4AF37"/>
<rect x="0" y="640" width="40" height="40" fill="#D4AF37"/>
<rect x="40" y="640" width="40" height="40" fill="#D4AF37"/>
<rect x="200" y="640" width="40" height="40" fill="#D4AF37"/>
<rect x="240" y="640" width="40" height="40" fill="#D4AF37"/>
<rect x="280" y="640" width="40" height="40" fill="#D4AF37"/>
<rect x="360" y="640" width="40" height="40" fill="#D4AF37"/>
<rect x="400" y="640" width="40" height="40" fill="#D4AF37"/>
<rect x="520" y="640" width="40" height="40" fill="#D4AF37"/>
<rect x="560" y="640" width="40" height="40" fill="#D4AF37"/>
<rect x="600" y="640" width="40" height="40" fill="#D4AF37"/>
<rect x="640" y="640" width="40" height="40" fill="#D4AF37"/>
<rect x="720" y="640" width="40" height="40" fill="#D4AF37"/>
<rect x="760" y="640" width="40" height="40" fill="#D4AF37"/>
<rect x="800" y="640" width="40" height="40" fill="#D4AF37"/>
<rect x="840" y="640" width="40" height="40" fill="#D4AF37"/>
<rect x="880" y="640" width="40" height="40" fill="#D4AF37"/>
<rect x="920" y="640" width="40" height="40" fill="#D4AF37"/>
<rect x="1000" y="640" width="40" height="40" fill="#D4AF37"/>
<rect x="1080" y="640" width="40" height="40" fill="#D4AF37"/>
<rect x="1120" y="640" width="40" height="40" fill="#D4AF37"/>
<rect x="40" y="680" width="40" height="40" fill="#D4AF37"/>
<rect x="120" y="680" width="40" height="40" fill="#D4AF37"/>
<rect x="320" y="680" width="40" height="40" fill="#D4AF37"/>
<rect x="360" y="680" width="40" height="40" fill="#D4AF37"/>
<rect x="400" y="680" width="40" height="40" fill="#D4AF37"/>
<rect x="520" y="680" width="40" height="40" fill="#D4AF37"/>
<rect x="560" y="680" width="40" height="40" fill="#D4AF37"/>
<rect x="600" y="680" width="40" height="40" fill="#D4AF37"/>
<rect x="640" y="680" width="40" height="40" fill="#D4AF37"/>
<rect x="680" y="680" width="40" height="40" fill="#D4AF37"/>
<rect x="720" y="680" width="40" height="40" fill="#D4AF37"/>
<rect x="800" y="680" width="40" height="40" fill="#D4AF37"/>
<rect x="840" y="680" width="40" height="40" fill="#D4AF37"/>
<rect x="880" y="680" width="40" height="40" fill="#D4AF37"/>
<rect x="920" y="680" width="40" height="40" fill="#D4AF37"/>
<rect x="1000" y="680" width="40" height="40" fill="#D4AF37"/>
<rect x="1080" y="680" width="40" height="40" fill="#D4AF37"/>
<rect x="1120" y="680" width="40" height="40" fill="#D4AF37"/>
<rect x="0" y="720" width="40" height="40" fill="#D4AF37"/>
<rect x="40" y="720" width="40" height="40" fill="#D4AF37"/>
<rect x="80" y="720" width="40" height="40" fill="#D4AF37"/>
<rect x="120" y="720" width="40" height="40" fill="#D4AF37"/>
<rect x="160" y="720" width="40" height="40" fill="#D4AF37"/>
<rect x="240" y="720" width="40" height="40" fill="#D4AF37"/>
<rect x="280" y="720" width="40" height="40" fill="#D4AF37"/>
<rect x="440" y="720" width="40" height="40" fill="#D4AF37"/>
<rect x="600" y="720" width="40" height="40" fill="#D4AF37"/>
<rect x="640" y="720" width="40" height="40" fill="#D4AF37"/>
<rect x="680" y="720" width="40" height="40" fill="#D4AF37"/>
<rect x="720" y="720" width="40" height="40" fill="#D4AF37"/>
<rect x="760" y="720" width="40" height="40" fill="#D4AF37"/>
<rect x="840" y="720" width="40" height="40" fill="#D4AF37"/>
<rect x="880" y="720" width="40" height="40" fill="#D4AF37"/>
<rect x="920" y="720" width="40" height="40" fill="#D4AF37"/>
<rect x="1000" y="720" width="40" height="40" fill="#D4AF37"/>
<rect x="1120" y="720" width="40" height="40" fill="#D4AF37"/>
<rect x="360" y="760" width="40" height="40" fill="#D4AF37"/>
<rect x="400" y="760" width="40" height="40" fill="#D4AF37"/>
<rect x="520" y="760" width="40" height="40" fill="#D4AF37"/>
<rect x="600" y="760" width="40" height="40" fill="#D4AF37"/>
<rect x="640" y="760" width="40" height="40" fill="#D4AF37"/>
<rect x="720" y="760" width="40" height="40" fill="#D4AF37"/>
<rect x="840" y="760" width="40" height="40" fill="#D4AF37"/>
<rect x="1000" y="760" width="40" height="40" fill="#D4AF37"/>
<rect x="1080" y="760" width="40" height="40" fill="#D4AF37"/>
<rect x="1120" y="760" width="40" height="40" fill="#D4AF37"/>
<rect x="0" y="800" width="40" height="40" fill="#D4AF37"/>
<rect x="40" y="800" width="40" height="40" fill="#D4AF37"/>
<rect x="80" y="800" width="40" height="40" fill="#D4AF37"/>
<rect x="120" y="800" width="40" height="40" fill="#D4AF37"/>
<rect x="160" y="800" width="40" height="40" fill="#D4AF37"/>
<rect x="240" y="800" width="40" height="40" fill="#D4AF37"/>
<rect x="280" y="800" width="40" height="40" fill="#D4AF37"/>
<rect x="320" y="800" width="40" height="40" fill="#D4AF37"/>
<rect x="360" y="800" width="40" height="40" fill="#D4AF37"/>
<rect x="400" y="800" width="40" height="40" fill="#D4AF37"/>
<rect x="440" y="800" width="40" height="40" fill="#D4AF37"/>
<rect x="480" y="800" width="40" height="40" fill="#D4AF37"/>
<rect x="520" y="800" width="40" height="40" fill="#D4AF37"/>
<rect x="640" y="800" width="40" height="40" fill="#D4AF37"/>
<rect x="760" y="800" width="40" height="40" fill="#D4AF37"/>
<rect x="800" y="800" width="40" height="40" fill="#D4AF37"/>
<rect x="840" y="800" width="40" height="40" fill="#D4AF37"/>
<rect x="880" y="800" width="40" height="40" fill="#D4AF37"/>
<rect x="920" y="800" width="40" height="40" fill="#D4AF37"/>
<rect x="960" y="800" width="40" height="40" fill="#D4AF37"/>
<rect x="1080" y="800" width="40" height="40" fill="#D4AF37"/>
<rect x="1120" y="800" width="40" height="40" fill="#D4AF37"/>
<rect x="320" y="840" width="40" height="40" fill="#D4AF37"/>
<rect x="360" y="840" width="40" height="40" fill="#D4AF37"/>
<rect x="480" y="840" width="40" height="40" fill="#D4AF37"/>
<rect x="600" y="840" width="40" height="40" fill="#D4AF37"/>
<rect x="640" y="840" width="40" height="40" fill="#D4AF37"/>
<rect x="720" y="840" width="40" height="40" fill="#D4AF37"/>
<rect x="760" y="840" width="40" height="40" fill="#D4AF37"/>
<rect x="800" y="840" width="40" height="40" fill="#D4AF37"/>
<rect x="960" y="840" width="40" height="40" fill="#D4AF37"/>
<rect x="1040" y="840" width="40" height="40" fill="#D4AF37"/>
<rect x="1080" y="840" width="40" height="40" fill="#D4AF37"/>
<rect x="1120" y="840" width="40" height="40" fill="#D4AF37"/>
<rect x="0" y="880" width="40" height="40" fill="#D4AF37"/>
<rect x="40" y="880" width="40" height="40" fill="#D4AF37"/>
<rect x="80" y="880" width="40" height="40" fill="#D4AF37"/>
<rect x="120" y="880" width="40" height="40" fill="#D4AF37"/>
<rect x="160" y="880" width="40" height="40" fill="#D4AF37"/>
<rect x="200" y="880" width="40" height="40" fill="#D4AF37"/>
<rect x="240" y="880" width="40" height="40" fill="#D4AF37"/>
<rect x="360" y="880" width="40" height="40" fill="#D4AF37"/>
<rect x="400" y="880" width="40" height="40" fill="#D4AF37"/>
<rect x="480" y="880" width="40" height="40" fill="#D4AF37"/>
<rect x="520" y="880" width="40" height="40" fill="#D4AF37"/>
<rect x="560" y="880" width="40" height="40" fill="#D4AF37"/>
<rect x="600" y="880" width="40" height="40" fill="#D4AF37"/>
<rect x="720" y="880" width="40" height="40" fill="#D4AF37"/>
<rect x="800" y="880" width="40" height="40" fill="#D4AF37"/>
<rect x="880" y="880" width="40" height="40" fill="#D4AF37"/>
<rect x="960" y="880" width="40" height="40" fill="#D4AF37"/>
<rect x="1040" y="880" width="40" height="40" fill="#D4AF37"/>
<rect x="1120" y="880" width="40" height="40" fill="#D4AF37"/>
<rect x="0" y="920" width="40" height="40" fill="#D4AF37"/>
<rect x="240" y="920" width="40" height="40" fill="#D4AF37"/>
<rect x="320" y="920" width="40" height="40" fill="#D4AF37"/>
<rect x="400" y="920" width="40" height="40" fill="#D4AF37"/>
<rect x="440" y="920" width="40" height="40" fill="#D4AF37"/>
<rect x="480" y="920" width="40" height="40" fill="#D4AF37"/>
<rect x="560" y="920" width="40" height="40" fill="#D4AF37"/>
<rect x="600" y="920" width="40" height="40" fill="#D4AF37"/>
<rect x="640" y="920" width="40" height="40" fill="#D4AF37"/>
<rect x="760" y="920" width="40" height="40" fill="#D4AF37"/>
<rect x="800" y="920" width="40" height="40" fill="#D4AF37"/>
<rect x="960" y="920" width="40" height="40" fill="#D4AF37"/>
<rect x="0" y="960" width="40" height="40" fill="#D4AF37"/>
<rect x="80" y="960" width="40" height="40" fill="#D4AF37"/>
<rect x="120" y="960" width="40" height="40" fill="#D4AF37"/>
<rect x="160" y="960" width="40" height="40" fill="#D4AF37"/>
<rect x="240" y="960" width="40" height="40" fill="#D4AF37"/>
<rect x="520" y="960" width="40" height="40" fill="#D4AF37"/>
<rect x="560" y="960" width="40" height="40" fill="#D4AF37"/>
<rect x="600" y="960" width="40" height="40" fill="#D4AF37"/>
<rect x="680" y="960" width="40" height="40" fill="#D4AF37"/>
<rect x="760" y="960" width="40" height="40" fill="#D4AF37"/>
<rect x="800" y="960" width="40" height="40" fill="#D4AF37"/>
<rect x="840" y="960" width="40" height="40" fill="#D4AF37"/>
<rect x="880" y="960" width="40" height="40" fill="#D4AF37"/>
<rect x="920" y="960" width="40" height="40" fill="#D4AF37"/>
<rect x="960" y="960" width="40" height="40" fill="#D4AF37"/>
<rect x="1120" y="960" width="40" height="40" fill="#D4AF37"/>
<rect x="0" y="1000" width="40" height="40" fill="#D4AF37"/>
<rect x="80" y="1000" width="40" height="40" fill="#D4AF37"/>
<rect x="120" y="1000" width="40" height="40" fill="#D4AF37"/>
<rect x="160" y="1000" width="40" height="40" fill="#D4AF37"/>
<rect x="240" y="1000" width="40" height="40" fill="#D4AF37"/>
<rect x="360" y="1000" width="40" height="40" fill="#D4AF37"/>
<rect x="520" y="1000" width="40" height="40" fill="#D4AF37"/>
<rect x="560" y="1000" width="40" height="40" fill="#D4AF37"/>
<rect x="640" y="1000" width="40" height="40" fill="#D4AF37"/>
<rect x="720" y="1000" width="40" height="40" fill="#D4AF37"/>
<rect x="760" y="1000" width="40" height="40" fill="#D4AF37"/>
<rect x="840" y="1000" width="40" height="40" fill="#D4AF37"/>
<rect x="920" y="1000" width="40" height="40" fill="#D4AF37"/>
<rect x="960" y="1000" width="40" height="40" fill="#D4AF37"/>
<rect x="1040" y="1000" width="40" height="40" fill="#D4AF37"/>
<rect x="1120" y="1000" width="40" height="40" fill="#D4AF37"/>
<rect x="0" y="1040" width="40" height="40" fill="#D4AF37"/>
<rect x="80" y="1040" width="40" height="40" fill="#D4AF37"/>
<rect x="120" y="1040" width="40" height="40" fill="#D4AF37"/>
<rect x="160" y="1040" width="40" height="40" fill="#D4AF37"/>
<rect x="240" y="1040" width="40" height="40" fill="#D4AF37"/>
<rect x="320" y="1040" width="40" height="40" fill="#D4AF37"/>
<rect x="400" y="1040" width="40" height="40" fill="#D4AF37"/>
<rect x="440" y="1040" width="40" height="40" fill="#D4AF37"/>
<rect x="600" y="1040" width="40" height="40" fill="#D4AF37"/>
<rect x="640" y="1040" width="40" height="40" fill="#D4AF37"/>
<rect x="680" y="1040" width="40" height="40" fill="#D4AF37"/>
<rect x="760" y="1040" width="40" height="40" fill="#D4AF37"/>
<rect x="800" y="1040" width="40" height="40" fill="#D4AF37"/>
<rect x="960" y="1040" width="40" height="40" fill="#D4AF37"/>
<rect x="1000" y="1040" width="40" height="40" fill="#D4AF37"/>
<rect x="1080" y="1040" width="40" height="40" fill="#D4AF37"/>
<rect x="1120" y="1040" width="40" height="40" fill="#D4AF37"/>
<rect x="0" y="1080" width="40" height="40" fill="#D4AF37"/>
<rect x="240" y="1080" width="40" height="40" fill="#D4AF37"/>
<rect x="320" y="1080" width="40" height="40" fill="#D4AF37"/>
<rect x="520" y="1080" width="40" height="40" fill="#D4AF37"/>
<rect x="600" y="1080" width="40" height="40" fill="#D4AF37"/>
<rect x="640" y="1080" width="40" height="40" fill="#D4AF37"/>
<rect x="720" y="1080" width="40" height="40" fill="#D4AF37"/>
<rect x="760" y="1080" width="40" height="40" fill="#D4AF37"/>
<rect x="800" y="1080" width="40" height="40" fill="#D4AF37"/>
<rect x="1000" y="1080" width="40" height="40" fill="#D4AF37"/>
<rect x="0" y="1120" width="40" height="40" fill="#D4AF37"/>
<rect x="40" y="1120" width="40" height="40" fill="#D4AF37"/>
<rect x="80" y="1120" width="40" height="40" fill="#D4AF37"/>
<rect x="120" y="1120" width="40" height="40" fill="#D4AF37"/>
<rect x="160" y="1120" width="40" height="40" fill="#D4AF37"/>
<rect x="200" y="1120" width="40" height="40" fill="#D4AF37"/>
<rect x="240" y="1120" width="40" height="40" fill="#D4AF37"/>
<rect x="320" y="1120" width="40" height="40" fill="#D4AF37"/>
<rect x="360" y="1120" width="40" height="40" fill="#D4AF37"/>
<rect x="440" y="1120" width="40" height="40" fill="#D4AF37"/>
<rect x="480" y="1120" width="40" height="40" fill="#D4AF37"/>
<rect x="520" y="1120" width="40" height="40" fill="#D4AF37"/>
<rect x="600" y="1120" width="40" height="40" fill="#D4AF37"/>
<rect x="800" y="1120" width="40" height="40" fill="#D4AF37"/>
<rect x="840" y="1120" width="40" height="40" fill="#D4AF37"/>
<rect x="960" y="1120" width="40" height="40" fill="#D4AF37"/>
<rect x="1120" y="1120" width="40" height="40" fill="#D4AF37"/>
</svg>